PathFileType	4	(X/Y/Z)	walk-thru1-3-TP.trc
DataRate	CameraRate	NumFrames	NumMarkers	Units	OrigDataRate	OrigDataStartFrame	OrigNumFrames
120.00	120.00	       4	60	mm	120.00	1	       528
Frame#	Time	Top.Head			Front.Head			Rear.Head			Jaw			C7			R.Clavicle			L.Clavicle			R.Shoulder			L.Shoulder			R.Scapula			L.Scapula			R.Scap.Inf			R.Biceps.Lateral			R.Elbow			R.Elbow.Medial			R.Forearm			R.Ulna			R.Radius			R.Wrist			R.Thumb.M1			R.Thumb.M2			R.Thumb.M3			R.Finger3.M1			R.Finger3.M2			R.Finger3.M3			L.Biceps.Lateral			L.Elbow			L.Elbow.Medial			L.Forearm			L.Ulna			L.Radius			L.Wrist			L.Thumb.M1			L.Thumb.M2			L.Thumb.M3			L.Finger3.M1			L.Finger3.M2			L.Finger3.M3			V.Sacral			R.ASIS			L.ASIS			R.Thigh			R.Thigh.Front			R.Knee			R.Knee.Medial			R.Shank			R.Ankle			R.Ankle.Medial			R.Heel			R.Toe			R.MedFoot			L.Thigh			L.Knee			L.Knee.Medial			L.Shank			L.Ankle			L.Ankle.Medial			L.Heel			L.Toe			L.MedFoot			V_mid_ASIS			V_R_Knee_JC			V_L_Knee_JC			V_R_Elbow_JC			V_L_Elbow_JC			V_R_Ankle_JC			V_L_Ankle_JC			V_R_Wrist_JC			V_L_Wrist_JC			V_R_ScaTrpz_1stMC_JC			V_R_1stMC_1stPP_JC			V_R_1stPP_1stDP_JC			V_R_LunCap_3rdMC_JC			V_R_3rdMC_3rdPP_JC			V_R_3rdPP_3rdMP_JC			V_R_3rdMP_3rdDP_JC			V_L_ScaTrpz_1stMC_JC			V_L_1stMC_1stPP_JC			V_L_1stPP_1stDP_JC			V_L_LunCap_3rdMC_JC			V_L_3rdMC_3rdPP_JC			V_L_3rdPP_3rdMP_JC			V_L_3rdMP_3rdPP_JC			V_ROOT_JC			V_R_Hip_JC			V_L_Hip_JC			V_R_GlenHum_JC			V_L_GlenHum_JC			V_ForeHead_Ctr			V_Vertex			V_Sagit_Lambdoid_Suture			V_R_FrontoTemp			V_L_FrontoTemporal			V_R_ParietalOccip			V_L_ParietalOcciptal			V_R_Temporal			V_L_Temporal			V_mid_FrontRearHead			V_mid_RLGlenHumCtrs			V_C7_vert			V_C1_vert			V_Mid_Hip			
		X1	Y1	Z1	X2	Y2	Z2	X3	Y3	Z3	X4	Y4	Z4	X5	Y5	Z5	X6	Y6	Z6	X7	Y7	Z7	X8	Y8	Z8	X9	Y9	Z9	X10	Y10	Z10	X11	Y11	Z11	X12	Y12	Z12	X13	Y13	Z13	X14	Y14	Z14	X15	Y15	Z15	X16	Y16	Z16	X17	Y17	Z17	X18	Y18	Z18	X19	Y19	Z19	X20	Y20	Z20	X21	Y21	Z21	X22	Y22	Z22	X23	Y23	Z23	X24	Y24	Z24	X25	Y25	Z25	X26	Y26	Z26	X27	Y27	Z27	X28	Y28	Z28	X29	Y29	Z29	X30	Y30	Z30	X31	Y31	Z31	X32	Y32	Z32	X33	Y33	Z33	X34	Y34	Z34	X35	Y35	Z35	X36	Y36	Z36	X37	Y37	Z37	X38	Y38	Z38	X39	Y39	Z39	X40	Y40	Z40	X41	Y41	Z41	X42	Y42	Z42	X43	Y43	Z43	X44	Y44	Z44	X45	Y45	Z45	X46	Y46	Z46	X47	Y47	Z47	X48	Y48	Z48	X49	Y49	Z49	X50	Y50	Z50	X51	Y51	Z51	X52	Y52	Z52	X53	Y53	Z53	X54	Y54	Z54	X55	Y55	Z55	X56	Y56	Z56	X57	Y57	Z57	X58	Y58	Z58	X59	Y59	Z59	X60	Y60	Z60	

1	0.000	1603.95056	-44.32905	1559.41406	1504.36304	-37.72105	1458.23950	1717.31482	-42.02589	1479.62720	1535.04578	-22.35271	1316.88928	1736.88684	-23.37774	1371.09387	1657.18774	88.23977	1279.48181	1638.66248	-125.27512	1285.22900	1708.10657	164.65073	1277.39636	1684.81982	-220.85933	1286.26965	1787.01184	62.70528	1294.44055	1782.51868	-120.60689	1294.67615	1834.92371	44.44880	1212.69031	1676.82349	217.30069	1135.81897	1700.49219	241.28468	974.53040	1731.05249	171.32642	955.83575	1619.54822	234.36195	905.14319	1641.32275	261.42130	818.69342	1573.52246	217.46733	777.17114	1575.67688	258.23688	743.01825	1543.77710	220.74770	728.62213	1529.96948	206.05424	692.54657	1521.52673	195.67699	651.97253	1551.73889	273.21564	670.37170	1548.54736	252.84178	619.82782	1559.49268	231.57750	585.92139	1704.07642	-280.78760	1141.54260	1756.17236	-291.14206	998.56311	1777.72058	-212.13669	992.15222	1671.94604	-274.06876	933.55273	1682.22375	-309.88181	842.62250	1632.35669	-252.83485	800.72003	1620.32312	-300.32434	777.86255	1598.04199	-259.41656	767.31970	1587.11084	-239.37016	730.92249	1576.17798	-230.92390	679.35504	1588.81287	-303.65613	694.16943	1583.81689	-296.72217	654.80469	1588.39966	-269.81726	616.76654	1850.89124	-36.35053	905.07703	1661.35376	126.19045	964.82867	1665.85645	-189.85426	954.86896	1669.21960	146.60194	573.27753	1610.66431	75.64666	481.18143	1663.01514	105.20979	434.30124	1654.56458	-5.48767	429.02823	1690.84912	50.90077	262.60349	1799.11084	56.67819	64.01472	1777.52332	-31.64358	80.81466	1858.08203	0.21838	42.72975	1656.89392	44.62875	37.23842	1712.47241	-5.88224	62.19008	1596.18799	-224.13490	587.47699	1542.17456	-204.02626	454.21756	1526.73340	-82.18858	438.71298	1602.65967	-144.31277	264.77298	1731.71362	-162.22090	104.13969	1710.31018	-72.58103	122.39011	1795.46790	-109.82436	96.96944	1603.51416	-123.37720	45.78006	1643.37170	-92.50726	81.61330																																																																																																																															
2	0.008	1599.27185	-44.65388	1558.55273	1498.98535	-36.84492	1457.04712	1711.85254	-41.81926	1479.64014	1530.44580	-21.66417	1316.65210	1731.86206	-23.31821	1370.11902	1651.78589	88.79417	1279.01208	1632.10132	-124.84196	1285.13269	1702.78674	164.08145	1276.59692	1680.17102	-219.43535	1286.22070	1781.91345	62.78164	1294.11646	1777.51538	-120.70244	1294.25061	1829.84814	44.13444	1212.31372	1672.21106	218.35440	1135.98926	1693.88245	241.83719	973.98627	1723.30823	172.17339	955.45709	1612.92468	233.31261	905.48462	1634.92444	261.55713	819.14813	1565.45996	217.83417	777.50726	1567.51904	256.91074	743.55005	1534.76819	220.09396	730.41211	1521.42371	205.09647	693.70721	1511.24963	195.04707	653.14801	1543.35193	274.32602	670.30933	1538.87781	253.60565	620.47302	1547.50757	232.56363	586.44904	1700.45447	-280.99542	1141.51135	1752.29358	-290.99084	998.36755	1772.76599	-211.09468	991.72998	1667.64441	-274.55737	935.00110	1678.11499	-309.25464	842.38007	1622.75537	-253.97311	799.44287	1614.85486	-302.99713	776.75134	1594.43640	-261.26202	767.55212	1579.48718	-239.31487	730.14270	1572.87622	-231.59760	679.30243	1582.95959	-304.14267	694.57379	1577.97253	-295.75604	654.20599	1583.82544	-268.76929	615.81952	1845.58911	-36.64680	904.45496	1657.54370	125.79684	964.51971	1658.71143	-191.03036	952.98907	1666.73132	146.35283	573.18634	1608.48669	75.18452	480.20929	1661.29932	105.55859	433.72736	1651.93188	-5.06676	428.99933	1690.24133	50.61758	261.99048	1799.33521	56.40230	64.42828	1777.88501	-31.24968	80.48634	1858.32520	0.08322	43.29878	1657.24683	43.61626	36.70634	1713.39160	-5.75146	62.32739	1589.68323	-224.55960	587.51025	1534.67322	-202.97321	454.42499	1518.96936	-81.88168	439.85187	1590.41284	-144.91724	264.54367	1714.28796	-161.04095	99.86485	1692.44995	-73.05286	117.92014	1774.54468	-110.01264	89.49150	1582.65723	-124.11781	45.54612	1624.58008	-92.80516	79.73209																																																																																																																															
3	0.017	1594.17419	-45.55770	1558.12622	1494.56458	-37.72009	1458.03796	1707.24902	-42.08369	1479.26575	1526.32800	-21.69374	1316.39124	1726.02771	-22.45231	1370.53198	1646.94104	88.86127	1278.36316	1626.76550	-124.34547	1284.94067	1696.49866	164.05807	1275.41980	1675.45227	-219.91628	1285.44055	1776.47949	62.13360	1293.48059	1771.84045	-120.45065	1294.02734	1823.94983	44.39997	1211.98938	1665.37341	217.12074	1135.41760	1687.90576	240.87067	973.79456	1718.74133	173.20872	954.70288	1604.23767	233.45946	905.03461	1626.28699	260.30502	818.84418	1557.97546	216.92700	777.23218	1558.89258	258.34750	744.36499	1526.94397	220.53685	730.97919	1512.15063	207.09787	694.38800	1501.18762	196.69072	654.85944	1531.95825	274.16046	671.62036	1529.28052	254.64688	621.32587	1538.29504	233.79817	587.29688	1695.79492	-281.50989	1141.20276	1747.51306	-289.10553	997.77289	1767.81824	-210.42613	991.25653	1660.14758	-272.80411	933.20209	1672.11670	-309.35361	842.09399	1620.80200	-253.49153	800.27838	1610.97021	-302.06512	776.36841	1589.63635	-260.57526	767.56262	1573.34766	-236.63710	729.98688	1566.57056	-232.70401	678.98004	1579.15564	-303.88174	693.81213	1574.65698	-295.31735	653.97601	1579.76416	-268.00354	614.81903	1839.99988	-37.81604	904.06903	1651.83655	127.53239	964.06616	1653.49463	-191.34818	953.90247	1663.40063	146.27898	573.47858	1606.37463	74.25827	479.31287	1659.52612	105.84299	433.14536	1650.35620	-4.28754	428.34512	1689.90234	50.35713	261.72385	1799.70227	57.14908	64.52102	1777.88501	-31.24968	80.48634	1858.24292	0.23078	43.55116	1657.77734	44.28400	36.70444	1712.47241	-5.88224	62.19008	1582.45630	-224.55086	586.98474	1527.21265	-203.07666	455.89304	1509.11365	-77.36252	442.27121	1577.26453	-143.31706	262.56805	1695.41956	-160.57266	95.71651	1673.73682	-72.33588	113.93645	1754.87817	-108.10627	83.72239	1562.23059	-125.30536	45.30360	1604.87073	-93.27722	77.72251																																																																																																																															
4	0.025	1589.15295	-44.59183	1557.78186	1488.01892	-36.86877	1456.54041	1703.62952	-41.10155	1479.79968	1522.31970	-22.77074	1315.83777	1721.56384	-23.39497	1369.64771	1641.93420	88.79168	1278.43652	1622.69617	-124.54193	1284.16626	1693.02478	164.21660	1275.09851	1670.57629	-220.62071	1285.82019	1772.91553	63.11037	1292.79175	1767.91504	-120.08356	1293.51501	1818.39954	43.79705	1211.28967	1660.55493	216.91089	1135.47876	1681.52930	242.04271	973.62128	1712.17310	173.59734	954.03381	1598.57947	233.84018	906.04193	1617.51074	262.48206	818.74774	1547.89978	219.30632	777.48096	1549.28101	257.75308	745.24072	1517.93787	220.22659	731.79041	1503.54822	205.53383	696.14087	1491.52075	197.22794	656.51617	1523.86389	274.73154	672.80695	1518.12854	254.05785	622.60101	1529.30017	232.94847	589.06860	1692.09033	-282.04877	1141.12256	1742.65430	-289.20795	997.23914	1762.51733	-210.56290	990.79901	1656.64319	-273.12256	933.17487	1667.99451	-309.77026	842.16504	1616.47668	-252.73648	800.89166	1605.45166	-302.20410	775.38263	1583.38916	-261.88022	766.77832	1567.33069	-237.94939	730.36835	1563.46582	-231.77937	678.51270	1573.97961	-304.20877	693.78802	1568.60767	-296.31366	654.33337	1573.35071	-268.85614	614.17151	1835.47180	-38.64004	903.73456	1647.25232	128.02112	963.74609	1649.71558	-189.33572	954.30750	1660.68433	146.19257	572.41223	1604.61377	75.60838	479.04398	1657.67419	106.05970	432.55493	1648.17163	-4.78653	427.39020	1688.56152	50.53384	261.22192	1799.74792	57.56748	65.05671	1777.81274	-31.17542	80.55667	1858.39929	-0.38500	44.18773	1657.69775	44.66273	36.66828	1712.47241	-5.88224	62.19008	1575.17480	-223.48245	587.40271	1520.08752	-201.47234	455.53024	1502.84290	-77.75264	442.56671	1564.51843	-144.44128	261.92801	1674.99719	-161.35005	90.70505	1655.60913	-72.27320	110.46541	1735.85535	-108.87790	75.47580	1542.76611	-125.52798	45.33989	1584.59497	-92.29687	76.87706																																																																																																																															
